<?xml version="1.0" encoding="utf-8"?>
<svg width="100%" height="100%" viewBox="0 0 54 53" version="1.1" style="fill-rule:evenodd;clip-rule:evenodd;stroke-linejoin:round;stroke-miterlimit:2;" xmlns="http://www.w3.org/2000/svg">
  <defs/>
  <path d="M 19.997 46.997 L 16.997 46.997 L 16.997 38.997 L 19.997 38.997 L 19.997 35.993 L 22.997 35.993 L 22.997 32.997 L 30.997 32.997 L 30.997 35.993 L 33.997 35.993 L 33.997 38.997 L 36.997 38.997 L 36.997 46.997 L 33.997 46.997 L 33.997 50.002 L 30.997 50.002 L 30.997 52.997 L 22.997 52.997 L 22.997 50.002 L 19.997 50.002 L 19.997 46.997 Z" style="fill:white;"/>
  <path d="M 3.002 30.604 L 0.002 30.604 L 0.002 22.604 L 3.002 22.604 L 3.002 30.604 Z M 3.002 22.604 L 3.002 19.604 L 6.002 19.604 L 6.002 22.604 L 3.002 22.604 Z M 6.002 19.604 L 6.002 16.604 L 14.002 16.604 L 14.002 19.604 L 6.002 19.604 Z M 14.002 19.604 L 17.002 19.604 L 17.002 22.604 L 14.002 22.604 L 14.002 19.604 Z M 17.002 22.604 L 20.002 22.604 L 20.002 30.604 L 17.002 30.604 L 17.002 22.604 Z M 17.002 30.604 L 17.002 33.604 L 14.002 33.604 L 14.002 30.604 L 17.002 30.604 Z M 14.002 33.604 L 14.002 36.604 L 6.002 36.604 L 6.002 33.604 L 14.002 33.604 Z M 6.002 33.604 L 3.002 33.604 L 3.002 30.604 L 6.002 30.604 L 6.002 33.604 Z" style="fill:white;"/>
  <path d="M 37.006 30.604 L 34.006 30.604 L 34.006 22.604 L 37.006 22.604 L 37.006 30.604 Z M 37.006 22.604 L 37.006 19.604 L 40.006 19.604 L 40.006 22.604 L 37.006 22.604 Z M 40.006 19.604 L 40.006 16.604 L 48.006 16.604 L 48.006 19.604 L 40.006 19.604 Z M 48.006 19.604 L 51.006 19.604 L 51.006 22.604 L 48.006 22.604 L 48.006 19.604 Z M 51.006 22.604 L 54.006 22.604 L 54.006 30.604 L 51.006 30.604 L 51.006 22.604 Z M 51.006 30.604 L 51.006 33.604 L 48.006 33.604 L 48.006 30.604 L 51.006 30.604 Z M 48.006 33.604 L 48.006 36.604 L 40.006 36.604 L 40.006 33.604 L 48.006 33.604 Z M 40.006 33.604 L 37.006 33.604 L 37.006 30.604 L 40.006 30.604 L 40.006 33.604 Z" style="fill:white;"/>
  <path d="M 20.001 14.004 L 17.001 14.004 L 17.001 6.004 L 20.001 6.004 L 20.001 14.004 Z M 20.001 6.004 L 20.001 3.004 L 23.001 3.004 L 23.001 6.004 L 20.001 6.004 Z M 23.001 3.004 L 23.001 0.004 L 31.001 0.004 L 31.001 3.004 L 23.001 3.004 Z M 31.001 3.004 L 34.001 3.004 L 34.001 6.004 L 31.001 6.004 L 31.001 3.004 Z M 34.001 6.004 L 37.001 6.004 L 37.001 14.004 L 34.001 14.004 L 34.001 6.004 Z M 34.001 14.004 L 34.001 17.004 L 31.001 17.004 L 31.001 14.004 L 34.001 14.004 Z M 31.001 17.004 L 31.001 20.004 L 23.001 20.004 L 23.001 17.004 L 31.001 17.004 Z M 23.001 17.004 L 20.001 17.004 L 20.001 14.004 L 23.001 14.004 L 23.001 17.004 Z" style="fill:white;"/>
</svg>