<?xml version="1.0" encoding="utf-8"?>
<svg width="100%" height="100%" viewBox="0 0 54 53" version="1.1" style="fill-rule:evenodd;clip-rule:evenodd;stroke-linejoin:round;stroke-miterlimit:2;" xmlns="http://www.w3.org/2000/svg">
  <defs/>
  <path d="M 2.997 30.601 L -0.003 30.601 L -0.003 22.601 L 2.997 22.601 L 2.997 19.596 L 5.997 19.596 L 5.997 16.601 L 13.997 16.601 L 13.997 19.596 L 16.997 19.596 L 16.997 22.601 L 19.997 22.601 L 19.997 30.601 L 16.997 30.601 L 16.997 33.605 L 13.997 33.605 L 13.997 36.601 L 5.997 36.601 L 5.997 33.605 L 2.997 33.605 L 2.997 30.601 Z" style="fill:white;"/>
  <path d="M 20.001 47.001 L 17.001 47.001 L 17.001 39.001 L 20.001 39.001 L 20.001 47.001 Z M 20.001 39.001 L 20.001 36.001 L 23.001 36.001 L 23.001 39.001 L 20.001 39.001 Z M 23.001 36.001 L 23.001 33.001 L 31.001 33.001 L 31.001 36.001 L 23.001 36.001 Z M 31.001 36.001 L 34.001 36.001 L 34.001 39.001 L 31.001 39.001 L 31.001 36.001 Z M 34.001 39.001 L 37.001 39.001 L 37.001 47.001 L 34.001 47.001 L 34.001 39.001 Z M 34.001 47.001 L 34.001 50.001 L 31.001 50.001 L 31.001 47.001 L 34.001 47.001 Z M 31.001 50.001 L 31.001 53.001 L 23.001 53.001 L 23.001 50.001 L 31.001 50.001 Z M 23.001 50.001 L 20.001 50.001 L 20.001 47.001 L 23.001 47.001 L 23.001 50.001 Z" style="fill:white;"/>
  <path d="M 37.006 30.604 L 34.006 30.604 L 34.006 22.604 L 37.006 22.604 L 37.006 30.604 Z M 37.006 22.604 L 37.006 19.604 L 40.006 19.604 L 40.006 22.604 L 37.006 22.604 Z M 40.006 19.604 L 40.006 16.604 L 48.006 16.604 L 48.006 19.604 L 40.006 19.604 Z M 48.006 19.604 L 51.006 19.604 L 51.006 22.604 L 48.006 22.604 L 48.006 19.604 Z M 51.006 22.604 L 54.006 22.604 L 54.006 30.604 L 51.006 30.604 L 51.006 22.604 Z M 51.006 30.604 L 51.006 33.604 L 48.006 33.604 L 48.006 30.604 L 51.006 30.604 Z M 48.006 33.604 L 48.006 36.604 L 40.006 36.604 L 40.006 33.604 L 48.006 33.604 Z M 40.006 33.604 L 37.006 33.604 L 37.006 30.604 L 40.006 30.604 L 40.006 33.604 Z" style="fill:white;"/>
  <path d="M 20.001 14.004 L 17.001 14.004 L 17.001 6.004 L 20.001 6.004 L 20.001 14.004 Z M 20.001 6.004 L 20.001 3.004 L 23.001 3.004 L 23.001 6.004 L 20.001 6.004 Z M 23.001 3.004 L 23.001 0.004 L 31.001 0.004 L 31.001 3.004 L 23.001 3.004 Z M 31.001 3.004 L 34.001 3.004 L 34.001 6.004 L 31.001 6.004 L 31.001 3.004 Z M 34.001 6.004 L 37.001 6.004 L 37.001 14.004 L 34.001 14.004 L 34.001 6.004 Z M 34.001 14.004 L 34.001 17.004 L 31.001 17.004 L 31.001 14.004 L 34.001 14.004 Z M 31.001 17.004 L 31.001 20.004 L 23.001 20.004 L 23.001 17.004 L 31.001 17.004 Z M 23.001 17.004 L 20.001 17.004 L 20.001 14.004 L 23.001 14.004 L 23.001 17.004 Z" style="fill:white;"/>
</svg>