<?xml version="1.0" encoding="utf-8"?>
<svg width="100%" height="100%" viewBox="0 0 54 53" version="1.1" style="fill-rule:evenodd;clip-rule:evenodd;stroke-linejoin:round;stroke-miterlimit:2;" xmlns="http://www.w3.org/2000/svg">
  <defs/>
  <path d="M 36.996 30.601 L 33.996 30.601 L 33.996 22.601 L 36.996 22.601 L 36.996 19.596 L 39.996 19.596 L 39.996 16.601 L 47.996 16.601 L 47.996 19.596 L 50.996 19.596 L 50.996 22.601 L 53.996 22.601 L 53.996 30.601 L 50.996 30.601 L 50.996 33.605 L 47.996 33.605 L 47.996 36.601 L 39.996 36.601 L 39.996 33.605 L 36.996 33.605 L 36.996 30.601 Z" style="fill:white;"/>
  <path d="M 20.001 47.001 L 17.001 47.001 L 17.001 39.001 L 20.001 39.001 L 20.001 47.001 Z M 20.001 39.001 L 20.001 36.001 L 23.001 36.001 L 23.001 39.001 L 20.001 39.001 Z M 23.001 36.001 L 23.001 33.001 L 31.001 33.001 L 31.001 36.001 L 23.001 36.001 Z M 31.001 36.001 L 34.001 36.001 L 34.001 39.001 L 31.001 39.001 L 31.001 36.001 Z M 34.001 39.001 L 37.001 39.001 L 37.001 47.001 L 34.001 47.001 L 34.001 39.001 Z M 34.001 47.001 L 34.001 50.001 L 31.001 50.001 L 31.001 47.001 L 34.001 47.001 Z M 31.001 50.001 L 31.001 53.001 L 23.001 53.001 L 23.001 50.001 L 31.001 50.001 Z M 23.001 50.001 L 20.001 50.001 L 20.001 47.001 L 23.001 47.001 L 23.001 50.001 Z" style="fill:white;"/>
  <path d="M 3.002 30.604 L 0.002 30.604 L 0.002 22.604 L 3.002 22.604 L 3.002 30.604 Z M 3.002 22.604 L 3.002 19.604 L 6.002 19.604 L 6.002 22.604 L 3.002 22.604 Z M 6.002 19.604 L 6.002 16.604 L 14.002 16.604 L 14.002 19.604 L 6.002 19.604 Z M 14.002 19.604 L 17.002 19.604 L 17.002 22.604 L 14.002 22.604 L 14.002 19.604 Z M 17.002 22.604 L 20.002 22.604 L 20.002 30.604 L 17.002 30.604 L 17.002 22.604 Z M 17.002 30.604 L 17.002 33.604 L 14.002 33.604 L 14.002 30.604 L 17.002 30.604 Z M 14.002 33.604 L 14.002 36.604 L 6.002 36.604 L 6.002 33.604 L 14.002 33.604 Z M 6.002 33.604 L 3.002 33.604 L 3.002 30.604 L 6.002 30.604 L 6.002 33.604 Z" style="fill:white;"/>
  <path d="M 20.001 14.004 L 17.001 14.004 L 17.001 6.004 L 20.001 6.004 L 20.001 14.004 Z M 20.001 6.004 L 20.001 3.004 L 23.001 3.004 L 23.001 6.004 L 20.001 6.004 Z M 23.001 3.004 L 23.001 0.004 L 31.001 0.004 L 31.001 3.004 L 23.001 3.004 Z M 31.001 3.004 L 34.001 3.004 L 34.001 6.004 L 31.001 6.004 L 31.001 3.004 Z M 34.001 6.004 L 37.001 6.004 L 37.001 14.004 L 34.001 14.004 L 34.001 6.004 Z M 34.001 14.004 L 34.001 17.004 L 31.001 17.004 L 31.001 14.004 L 34.001 14.004 Z M 31.001 17.004 L 31.001 20.004 L 23.001 20.004 L 23.001 17.004 L 31.001 17.004 Z M 23.001 17.004 L 20.001 17.004 L 20.001 14.004 L 23.001 14.004 L 23.001 17.004 Z" style="fill:white;"/>
</svg>