<?xml version="1.0" encoding="UTF-8" standalone="no"?>
<!DOCTYPE svg PUBLIC "-//W3C//DTD SVG 1.1//EN" "http://www.w3.org/Graphics/SVG/1.1/DTD/svg11.dtd">
<svg width="100%" height="100%" viewBox="0 0 52 52" version="1.1" xmlns="http://www.w3.org/2000/svg" xmlns:xlink="http://www.w3.org/1999/xlink" xml:space="preserve" xmlns:serif="http://www.serif.com/" style="fill-rule:evenodd;clip-rule:evenodd;stroke-linejoin:round;stroke-miterlimit:2;">
    <path d="M18,0L34,0L34,2L38,2L38,4L42,4L42,6L44,6L44,8L46,8L46,10L48,10L48,14L50,14L50,18L52,18L52,34L50,34L50,38L48,38L48,42L46,42L46,44L44,44L44,46L42,46L42,48L38,48L38,50L34,50L34,52L18,52L18,50L14,50L14,48L10,48L10,46L8,46L8,44L6,44L6,42L4,42L4,38L2,38L2,34L0,34L0,18L2,18L2,14L4,14L4,10L6,10L6,8L8,8L8,6L10,6L10,4L14,4L14,2L18,2L18,0ZM31,18L31,14L11,14L11,30L16,30L16,28L13,28L13,16L29,16L29,18L31,18ZM41,38L41,22L20,22L20,38L41,38ZM22,24L39,24L39,36L22,36L22,24Z" style="fill:white;"/>
</svg>
