<?xml version="1.0" encoding="utf-8"?>
<svg width="100%" height="100%" viewBox="0 0 32 32" version="1.1" xmlns="http://www.w3.org/2000/svg" style="fill-rule:evenodd;clip-rule:evenodd;stroke-linejoin:round;stroke-miterlimit:2;">
  <path d="M 3.6 32 L 3.6 5.566 L 9.147 5.566 L 9.147 0 L 18.853 0 L 18.853 5.566 L 24.4 5.566 L 24.4 32 L 3.6 32 Z M 15.055 17.304 L 17.473 17.304 C 17.761 17.304 18.021 17.507 18.103 17.81 C 18.223 18.115 18.147 18.462 17.93 18.676 L 12.379 24.154 C 12.134 24.393 11.776 24.414 11.514 24.198 C 11.252 23.983 11.156 23.591 11.284 23.257 L 12.951 18.869 L 10.514 18.869 C 10.245 18.869 9.986 18.666 9.885 18.363 C 9.783 18.057 9.86 17.713 10.077 17.497 L 15.627 12.019 C 15.873 11.778 16.231 11.761 16.492 11.976 C 16.755 12.19 16.85 12.581 16.722 12.917 L 15.055 17.304 Z" style="fill:white;"/>
</svg>