<?xml version="1.0" encoding="utf-8"?>
<svg width="100%" height="100%" viewBox="0 0 32 32" version="1.1" xmlns="http://www.w3.org/2000/svg" style="fill-rule:evenodd;clip-rule:evenodd;stroke-linejoin:round;stroke-miterlimit:2;">
  <path d="M 24.347 8.347 L 24.347 30.607 C 24.347 31.678 23.188 32.347 22.26 31.812 C 21.83 31.563 21.565 31.104 21.565 30.607 L 21.565 8.347 C 21.565 7.276 22.724 6.607 23.652 7.143 C 24.082 7.391 24.347 7.85 24.347 8.347 Z M 29.912 0 C 29.144 0 28.521 0.623 28.521 1.391 L 28.521 30.607 C 28.521 31.678 29.68 32.347 30.608 31.812 C 31.038 31.563 31.303 31.104 31.303 30.607 L 31.303 1.391 C 31.303 0.623 30.68 0 29.912 0 Z M 16 13.912 C 15.232 13.912 14.609 14.535 14.609 15.303 L 14.609 30.607 C 14.609 31.678 15.768 32.347 16.696 31.812 C 17.126 31.563 17.391 31.104 17.391 30.607 L 17.391 15.303 C 17.391 14.535 16.768 13.912 16 13.912 Z M 9.044 20.868 C 8.276 20.868 7.653 21.491 7.653 22.259 L 7.653 30.607 C 7.653 31.678 8.812 32.347 9.74 31.812 C 10.17 31.563 10.435 31.104 10.435 30.607 L 10.435 22.259 C 10.435 21.491 9.812 20.868 9.044 20.868 Z M 2.088 27.824 C 1.32 27.824 0.697 28.447 0.697 29.216 L 0.697 30.607 C 0.697 31.678 1.856 32.347 2.783 31.812 C 3.214 31.563 3.479 31.104 3.479 30.607 L 3.479 29.216 C 3.479 28.447 2.856 27.824 2.088 27.824 Z" style="fill:white;fill-rule:nonzero;"/>
</svg>