<?xml version="1.0" encoding="utf-8"?>
<svg width="100%" height="100%" viewBox="0 0 32 32" version="1.1" xmlns="http://www.w3.org/2000/svg" style="fill-rule:evenodd;clip-rule:evenodd;stroke-linejoin:round;stroke-miterlimit:2;">
  <path d="M 25.959 22.399 L 17.426 16 L 25.959 9.6 C 26.615 9.108 26.615 8.124 25.959 7.631 L 16.113 0.248 C 15.355 -0.321 14.267 0.144 14.153 1.085 C 14.147 1.134 14.144 1.183 14.144 1.232 L 14.144 13.539 L 6.268 7.631 C 5.51 7.063 4.422 7.528 4.308 8.469 C 4.256 8.905 4.44 9.337 4.792 9.6 L 13.324 16 L 4.792 22.399 C 4.034 22.968 4.175 24.143 5.047 24.515 C 5.451 24.688 5.917 24.632 6.268 24.368 L 14.144 18.461 L 14.144 30.768 C 14.144 31.715 15.17 32.307 15.99 31.833 C 16.033 31.809 16.074 31.781 16.113 31.752 L 25.959 24.368 C 26.615 23.876 26.615 22.892 25.959 22.399 Z M 16.606 3.694 L 23.17 8.616 L 16.606 13.539 L 16.606 3.694 Z M 16.606 28.306 L 16.606 18.461 L 23.17 23.384 L 16.606 28.306 Z" style="fill:white;fill-rule:nonzero;"/>
</svg>