<?xml version="1.0" encoding="UTF-8" standalone="no"?>
<!DOCTYPE svg PUBLIC "-//W3C//DTD SVG 1.1//EN" "http://www.w3.org/Graphics/SVG/1.1/DTD/svg11.dtd">
<svg width="100%" height="100%" viewBox="0 0 16 16" version="1.1" xmlns="http://www.w3.org/2000/svg" xmlns:xlink="http://www.w3.org/1999/xlink" xml:space="preserve" xmlns:serif="http://www.serif.com/" style="fill-rule:evenodd;clip-rule:evenodd;stroke-linejoin:round;stroke-miterlimit:2;">
    <g id="Artboard1" transform="matrix(1.14286,0,0,1,0,0)">
        <rect x="0" y="0" width="14" height="16" style="fill:none;"/>
        <g transform="matrix(0.875,0,0,1,-127.75,-34)">
            <path d="M148,38L146,38L146,36L148,36L148,34L158,34L158,36L160,36L160,38L158,38L158,41L160,41L160,43L158,43L158,46L160,46L160,48L158,48L158,50L148,50L148,48L146,48L146,46L148,46L148,43L146,43L146,41L148,41L148,38ZM150,36L150,48L156,48L156,36L150,36Z" style="fill:white;"/>
        </g>
        <g transform="matrix(2.625,0,0,3,-17.5,-28)">
            <rect x="8" y="12" width="2" height="2" style="fill:white;"/>
        </g>
    </g>
</svg>
